<svg width="128" height="23" viewBox="0 0 128 23" fill="none" xmlns="http://www.w3.org/2000/svg">
<path d="M7.33594 5.32031V7.38281H0.1875V5.32031H7.33594ZM2.25 2.21484H5.07422V14.4961C5.07422 14.8867 5.12891 15.1875 5.23828 15.3984C5.35547 15.6016 5.51562 15.7383 5.71875 15.8086C5.92188 15.8789 6.16016 15.9141 6.43359 15.9141C6.62891 15.9141 6.81641 15.9023 6.99609 15.8789C7.17578 15.8555 7.32031 15.832 7.42969 15.8086L7.44141 17.9648C7.20703 18.0352 6.93359 18.0977 6.62109 18.1523C6.31641 18.207 5.96484 18.2344 5.56641 18.2344C4.91797 18.2344 4.34375 18.1211 3.84375 17.8945C3.34375 17.6602 2.95312 17.2812 2.67188 16.7578C2.39062 16.2344 2.25 15.5391 2.25 14.6719V2.21484ZM12.3047 0V18H9.49219V0H12.3047ZM11.8125 11.1914L10.8984 11.1797C10.9062 10.3047 11.0273 9.49609 11.2617 8.75391C11.5039 8.01172 11.8398 7.36719 12.2695 6.82031C12.707 6.26562 13.2305 5.83984 13.8398 5.54297C14.4492 5.23828 15.125 5.08594 15.8672 5.08594C16.4922 5.08594 17.0547 5.17188 17.5547 5.34375C18.0625 5.51562 18.5 5.79297 18.8672 6.17578C19.2344 6.55078 19.5117 7.04297 19.6992 7.65234C19.8945 8.25391 19.9922 8.98828 19.9922 9.85547V18H17.1562V9.83203C17.1562 9.22266 17.0664 8.73828 16.8867 8.37891C16.7148 8.01953 16.4609 7.76172 16.125 7.60547C15.7891 7.44141 15.3789 7.35938 14.8945 7.35938C14.3867 7.35938 13.9375 7.46094 13.5469 7.66406C13.1641 7.86719 12.8438 8.14453 12.5859 8.49609C12.3281 8.84766 12.1328 9.25391 12 9.71484C11.875 10.1758 11.8125 10.668 11.8125 11.1914ZM28.4414 18.2344C27.5039 18.2344 26.6562 18.082 25.8984 17.7773C25.1484 17.4648 24.5078 17.0312 23.9766 16.4766C23.4531 15.9219 23.0508 15.2695 22.7695 14.5195C22.4883 13.7695 22.3477 12.9609 22.3477 12.0938V11.625C22.3477 10.6328 22.4922 9.73438 22.7812 8.92969C23.0703 8.125 23.4727 7.4375 23.9883 6.86719C24.5039 6.28906 25.1133 5.84766 25.8164 5.54297C26.5195 5.23828 27.2812 5.08594 28.1016 5.08594C29.0078 5.08594 29.8008 5.23828 30.4805 5.54297C31.1602 5.84766 31.7227 6.27734 32.168 6.83203C32.6211 7.37891 32.957 8.03125 33.1758 8.78906C33.4023 9.54688 33.5156 10.3828 33.5156 11.2969V12.5039H23.7188V10.4766H30.7266V10.2539C30.7109 9.74609 30.6094 9.26953 30.4219 8.82422C30.2422 8.37891 29.9648 8.01953 29.5898 7.74609C29.2148 7.47266 28.7148 7.33594 28.0898 7.33594C27.6211 7.33594 27.2031 7.4375 26.8359 7.64062C26.4766 7.83594 26.1758 8.12109 25.9336 8.49609C25.6914 8.87109 25.5039 9.32422 25.3711 9.85547C25.2461 10.3789 25.1836 10.9688 25.1836 11.625V12.0938C25.1836 12.6484 25.2578 13.1641 25.4062 13.6406C25.5625 14.1094 25.7891 14.5195 26.0859 14.8711C26.3828 15.2227 26.7422 15.5 27.1641 15.7031C27.5859 15.8984 28.0664 15.9961 28.6055 15.9961C29.2852 15.9961 29.8906 15.8594 30.4219 15.5859C30.9531 15.3125 31.4141 14.9258 31.8047 14.4258L33.293 15.8672C33.0195 16.2656 32.6641 16.6484 32.2266 17.0156C31.7891 17.375 31.2539 17.668 30.6211 17.8945C29.9961 18.1211 29.2695 18.2344 28.4414 18.2344ZM44.5312 7.75781V22.875H41.707V5.32031H44.3086L44.5312 7.75781ZM52.793 11.543V11.7891C52.793 12.7109 52.6836 13.5664 52.4648 14.3555C52.2539 15.1367 51.9375 15.8203 51.5156 16.4062C51.1016 16.9844 50.5898 17.4336 49.9805 17.7539C49.3711 18.0742 48.668 18.2344 47.8711 18.2344C47.082 18.2344 46.3906 18.0898 45.7969 17.8008C45.2109 17.5039 44.7148 17.0859 44.3086 16.5469C43.9023 16.0078 43.5742 15.375 43.3242 14.6484C43.082 13.9141 42.9102 13.1094 42.8086 12.2344V11.2852C42.9102 10.3555 43.082 9.51172 43.3242 8.75391C43.5742 7.99609 43.9023 7.34375 44.3086 6.79688C44.7148 6.25 45.2109 5.82812 45.7969 5.53125C46.3828 5.23438 47.0664 5.08594 47.8477 5.08594C48.6445 5.08594 49.3516 5.24219 49.9688 5.55469C50.5859 5.85938 51.1055 6.29688 51.5273 6.86719C51.9492 7.42969 52.2656 8.10938 52.4766 8.90625C52.6875 9.69531 52.793 10.5742 52.793 11.543ZM49.9688 11.7891V11.543C49.9688 10.957 49.9141 10.4141 49.8047 9.91406C49.6953 9.40625 49.5234 8.96094 49.2891 8.57812C49.0547 8.19531 48.7539 7.89844 48.3867 7.6875C48.0273 7.46875 47.5938 7.35938 47.0859 7.35938C46.5859 7.35938 46.1562 7.44531 45.7969 7.61719C45.4375 7.78125 45.1367 8.01172 44.8945 8.30859C44.6523 8.60547 44.4648 8.95312 44.332 9.35156C44.1992 9.74219 44.1055 10.168 44.0508 10.6289V12.9023C44.1445 13.4648 44.3047 13.9805 44.5312 14.4492C44.7578 14.918 45.0781 15.293 45.4922 15.5742C45.9141 15.8477 46.4531 15.9844 47.1094 15.9844C47.6172 15.9844 48.0508 15.875 48.4102 15.6562C48.7695 15.4375 49.0625 15.1367 49.2891 14.7539C49.5234 14.3633 49.6953 13.9141 49.8047 13.4062C49.9141 12.8984 49.9688 12.3594 49.9688 11.7891ZM58.0312 7.73438V18H55.207V5.32031H57.9023L58.0312 7.73438ZM61.9102 5.23828L61.8867 7.86328C61.7148 7.83203 61.5273 7.80859 61.3242 7.79297C61.1289 7.77734 60.9336 7.76953 60.7383 7.76953C60.2539 7.76953 59.8281 7.83984 59.4609 7.98047C59.0938 8.11328 58.7852 8.30859 58.5352 8.56641C58.293 8.81641 58.1055 9.12109 57.9727 9.48047C57.8398 9.83984 57.7617 10.2422 57.7383 10.6875L57.0938 10.7344C57.0938 9.9375 57.1719 9.19922 57.3281 8.51953C57.4844 7.83984 57.7188 7.24219 58.0312 6.72656C58.3516 6.21094 58.75 5.80859 59.2266 5.51953C59.7109 5.23047 60.2695 5.08594 60.9023 5.08594C61.0742 5.08594 61.2578 5.10156 61.4531 5.13281C61.6562 5.16406 61.8086 5.19922 61.9102 5.23828ZM62.8359 11.8008V11.5312C62.8359 10.6172 62.9688 9.76953 63.2344 8.98828C63.5 8.19922 63.8828 7.51562 64.3828 6.9375C64.8906 6.35156 65.5078 5.89844 66.2344 5.57812C66.9688 5.25 67.7969 5.08594 68.7188 5.08594C69.6484 5.08594 70.4766 5.25 71.2031 5.57812C71.9375 5.89844 72.5586 6.35156 73.0664 6.9375C73.5742 7.51562 73.9609 8.19922 74.2266 8.98828C74.4922 9.76953 74.625 10.6172 74.625 11.5312V11.8008C74.625 12.7148 74.4922 13.5625 74.2266 14.3438C73.9609 15.125 73.5742 15.8086 73.0664 16.3945C72.5586 16.9727 71.9414 17.4258 71.2148 17.7539C70.4883 18.0742 69.6641 18.2344 68.7422 18.2344C67.8125 18.2344 66.9805 18.0742 66.2461 17.7539C65.5195 17.4258 64.9023 16.9727 64.3945 16.3945C63.8867 15.8086 63.5 15.125 63.2344 14.3438C62.9688 13.5625 62.8359 12.7148 62.8359 11.8008ZM65.6602 11.5312V11.8008C65.6602 12.3711 65.7188 12.9102 65.8359 13.418C65.9531 13.9258 66.1367 14.3711 66.3867 14.7539C66.6367 15.1367 66.957 15.4375 67.3477 15.6562C67.7383 15.875 68.2031 15.9844 68.7422 15.9844C69.2656 15.9844 69.7188 15.875 70.1016 15.6562C70.4922 15.4375 70.8125 15.1367 71.0625 14.7539C71.3125 14.3711 71.4961 13.9258 71.6133 13.418C71.7383 12.9102 71.8008 12.3711 71.8008 11.8008V11.5312C71.8008 10.9688 71.7383 10.4375 71.6133 9.9375C71.4961 9.42969 71.3086 8.98047 71.0508 8.58984C70.8008 8.19922 70.4805 7.89453 70.0898 7.67578C69.707 7.44922 69.25 7.33594 68.7188 7.33594C68.1875 7.33594 67.7266 7.44922 67.3359 7.67578C66.9531 7.89453 66.6367 8.19922 66.3867 8.58984C66.1367 8.98047 65.9531 9.42969 65.8359 9.9375C65.7188 10.4375 65.6602 10.9688 65.6602 11.5312ZM77.0039 0H79.8281V15.293L79.5586 18H77.0039V0ZM88.1016 11.543V11.7891C88.1016 12.7266 87.9961 13.5898 87.7852 14.3789C87.582 15.1602 87.2695 15.8398 86.8477 16.418C86.4336 16.9961 85.918 17.4453 85.3008 17.7656C84.6914 18.0781 83.9844 18.2344 83.1797 18.2344C82.3906 18.2344 81.7031 18.0859 81.1172 17.7891C80.5312 17.4922 80.0391 17.0703 79.6406 16.5234C79.25 15.9766 78.9336 15.3242 78.6914 14.5664C78.4492 13.8086 78.2773 12.9727 78.1758 12.0586V11.2734C78.2773 10.3516 78.4492 9.51562 78.6914 8.76562C78.9336 8.00781 79.25 7.35547 79.6406 6.80859C80.0391 6.25391 80.5273 5.82812 81.1055 5.53125C81.6914 5.23438 82.375 5.08594 83.1562 5.08594C83.9688 5.08594 84.6836 5.24219 85.3008 5.55469C85.9258 5.86719 86.4453 6.3125 86.8594 6.89062C87.2734 7.46094 87.582 8.14062 87.7852 8.92969C87.9961 9.71875 88.1016 10.5898 88.1016 11.543ZM85.2773 11.7891V11.543C85.2773 10.9727 85.2305 10.4375 85.1367 9.9375C85.043 9.42969 84.8867 8.98438 84.668 8.60156C84.457 8.21875 84.168 7.91797 83.8008 7.69922C83.4414 7.47266 82.9922 7.35938 82.4531 7.35938C81.9531 7.35938 81.5234 7.44531 81.1641 7.61719C80.8047 7.78906 80.5039 8.02344 80.2617 8.32031C80.0195 8.61719 79.8281 8.96094 79.6875 9.35156C79.5547 9.74219 79.4648 10.1641 79.418 10.6172V12.7383C79.4883 13.3242 79.6367 13.8633 79.8633 14.3555C80.0977 14.8398 80.4258 15.2305 80.8477 15.5273C81.2695 15.8164 81.8125 15.9609 82.4766 15.9609C83 15.9609 83.4414 15.8555 83.8008 15.6445C84.1602 15.4336 84.4453 15.1406 84.6562 14.7656C84.875 14.3828 85.0312 13.9375 85.125 13.4297C85.2266 12.9219 85.2773 12.375 85.2773 11.7891ZM93.5156 0V18H90.6797V0H93.5156ZM102.199 18.2344C101.262 18.2344 100.414 18.082 99.6562 17.7773C98.9062 17.4648 98.2656 17.0312 97.7344 16.4766C97.2109 15.9219 96.8086 15.2695 96.5273 14.5195C96.2461 13.7695 96.1055 12.9609 96.1055 12.0938V11.625C96.1055 10.6328 96.25 9.73438 96.5391 8.92969C96.8281 8.125 97.2305 7.4375 97.7461 6.86719C98.2617 6.28906 98.8711 5.84766 99.5742 5.54297C100.277 5.23828 101.039 5.08594 101.859 5.08594C102.766 5.08594 103.559 5.23828 104.238 5.54297C104.918 5.84766 105.48 6.27734 105.926 6.83203C106.379 7.37891 106.715 8.03125 106.934 8.78906C107.16 9.54688 107.273 10.3828 107.273 11.2969V12.5039H97.4766V10.4766H104.484V10.2539C104.469 9.74609 104.367 9.26953 104.18 8.82422C104 8.37891 103.723 8.01953 103.348 7.74609C102.973 7.47266 102.473 7.33594 101.848 7.33594C101.379 7.33594 100.961 7.4375 100.594 7.64062C100.234 7.83594 99.9336 8.12109 99.6914 8.49609C99.4492 8.87109 99.2617 9.32422 99.1289 9.85547C99.0039 10.3789 98.9414 10.9688 98.9414 11.625V12.0938C98.9414 12.6484 99.0156 13.1641 99.1641 13.6406C99.3203 14.1094 99.5469 14.5195 99.8438 14.8711C100.141 15.2227 100.5 15.5 100.922 15.7031C101.344 15.8984 101.824 15.9961 102.363 15.9961C103.043 15.9961 103.648 15.8594 104.18 15.5859C104.711 15.3125 105.172 14.9258 105.562 14.4258L107.051 15.8672C106.777 16.2656 106.422 16.6484 105.984 17.0156C105.547 17.375 105.012 17.668 104.379 17.8945C103.754 18.1211 103.027 18.2344 102.199 18.2344ZM112.301 7.89844V18H109.477V5.32031H112.137L112.301 7.89844ZM111.844 11.1914L110.883 11.1797C110.883 10.3047 110.992 9.49609 111.211 8.75391C111.43 8.01172 111.75 7.36719 112.172 6.82031C112.594 6.26562 113.117 5.83984 113.742 5.54297C114.375 5.23828 115.105 5.08594 115.934 5.08594C116.512 5.08594 117.039 5.17188 117.516 5.34375C118 5.50781 118.418 5.76953 118.77 6.12891C119.129 6.48828 119.402 6.94922 119.59 7.51172C119.785 8.07422 119.883 8.75391 119.883 9.55078V18H117.059V9.79688C117.059 9.17969 116.965 8.69531 116.777 8.34375C116.598 7.99219 116.336 7.74219 115.992 7.59375C115.656 7.4375 115.254 7.35938 114.785 7.35938C114.254 7.35938 113.801 7.46094 113.426 7.66406C113.059 7.86719 112.758 8.14453 112.523 8.49609C112.289 8.84766 112.117 9.25391 112.008 9.71484C111.898 10.1758 111.844 10.668 111.844 11.1914ZM119.707 10.4414L118.383 10.7344C118.383 9.96875 118.488 9.24609 118.699 8.56641C118.918 7.87891 119.234 7.27734 119.648 6.76172C120.07 6.23828 120.59 5.82812 121.207 5.53125C121.824 5.23438 122.531 5.08594 123.328 5.08594C123.977 5.08594 124.555 5.17578 125.062 5.35547C125.578 5.52734 126.016 5.80078 126.375 6.17578C126.734 6.55078 127.008 7.03906 127.195 7.64062C127.383 8.23438 127.477 8.95312 127.477 9.79688V18H124.641V9.78516C124.641 9.14453 124.547 8.64844 124.359 8.29688C124.18 7.94531 123.922 7.70312 123.586 7.57031C123.25 7.42969 122.848 7.35938 122.379 7.35938C121.941 7.35938 121.555 7.44141 121.219 7.60547C120.891 7.76172 120.613 7.98438 120.387 8.27344C120.16 8.55469 119.988 8.87891 119.871 9.24609C119.762 9.61328 119.707 10.0117 119.707 10.4414Z" fill="white"/>
</svg>
